<?xml version="1.0" encoding="UTF-8"?>
<svg width="32" height="32" viewBox="0 0 32 32" fill="none" xmlns="http://www.w3.org/2000/svg">
  <circle cx="16" cy="16" r="16" fill="url(#paint0_linear)"/>
  <g transform="translate(8, 6)">
    <path d="M8 16v1a2 2 0 01-2 2h0a2 2 0 01-2-2v-1m4 0a3.374 3.374 0 002-3.084v-.432l.548-.548a5 5 0 10-7.072 0l.548.548v.432A3.374 3.374 0 006 16m4 0H6M8 0v1m6.364 1.636l-.707.707M16 8h-1M1 8H0m3.343-5.657l-.707-.707" stroke="white" stroke-width="2" stroke-linecap="round" stroke-linejoin="round"/>
  </g>
  <defs>
    <linearGradient id="paint0_linear" x1="0" y1="0" x2="32" y2="32" gradientUnits="userSpaceOnUse">
      <stop stop-color="#10A37F"/>
      <stop offset="1" stop-color="#0E8D6E"/>
    </linearGradient>
  </defs>
</svg>
